<mxfile host="app.diagrams.net" modified="2024-05-19T10:26:22.750Z" agent="Mozilla/5.0 (Macintosh; Intel Mac OS X 10.15; rv:126.0) Gecko/20100101 Firefox/126.0" etag="P8tc6Lj6f8rgCHXKhVdQ" version="24.4.4" type="github">
  <diagram name="Page-1" id="Tn8kqmMqFSBgq0l0OKEK">
    <mxGraphModel dx="1665" dy="2224" grid="1" gridSize="10" guides="1" tooltips="1" connect="1" arrows="1" fold="1" page="1" pageScale="1" pageWidth="850" pageHeight="1100" math="0" shadow="0">
      <root>
        <mxCell id="0" />
        <mxCell id="1" parent="0" />
        <mxCell id="Cwlrhj_tZDCb-IW97PB_-1" value="max 150 health&lt;br&gt;current 100 hp" style="rounded=1;whiteSpace=wrap;html=1;" vertex="1" parent="1">
          <mxGeometry x="200" y="130" width="120" height="60" as="geometry" />
        </mxCell>
        <mxCell id="Cwlrhj_tZDCb-IW97PB_-61" style="edgeStyle=orthogonalEdgeStyle;rounded=0;orthogonalLoop=1;jettySize=auto;html=1;exitX=1;exitY=0.5;exitDx=0;exitDy=0;entryX=0;entryY=0.5;entryDx=0;entryDy=0;" edge="1" parent="1" source="Cwlrhj_tZDCb-IW97PB_-2" target="Cwlrhj_tZDCb-IW97PB_-7">
          <mxGeometry relative="1" as="geometry" />
        </mxCell>
        <mxCell id="Cwlrhj_tZDCb-IW97PB_-68" value="" style="edgeStyle=orthogonalEdgeStyle;rounded=0;orthogonalLoop=1;jettySize=auto;html=1;" edge="1" parent="1" source="Cwlrhj_tZDCb-IW97PB_-2" target="Cwlrhj_tZDCb-IW97PB_-67">
          <mxGeometry relative="1" as="geometry" />
        </mxCell>
        <mxCell id="Cwlrhj_tZDCb-IW97PB_-2" value="-100 damage" style="rounded=1;whiteSpace=wrap;html=1;" vertex="1" parent="1">
          <mxGeometry x="410" y="120" width="150" height="70" as="geometry" />
        </mxCell>
        <mxCell id="Cwlrhj_tZDCb-IW97PB_-40" value="" style="edgeStyle=orthogonalEdgeStyle;rounded=0;orthogonalLoop=1;jettySize=auto;html=1;entryX=0;entryY=0.5;entryDx=0;entryDy=0;exitX=1;exitY=0.5;exitDx=0;exitDy=0;" edge="1" parent="1" source="Cwlrhj_tZDCb-IW97PB_-7" target="Cwlrhj_tZDCb-IW97PB_-8">
          <mxGeometry relative="1" as="geometry">
            <mxPoint x="1030" y="160" as="targetPoint" />
          </mxGeometry>
        </mxCell>
        <mxCell id="Cwlrhj_tZDCb-IW97PB_-7" value="end turn if over half health of incoming damage subtract half health worth of incoming damage(75) from current hp and subtract same amount from incoming damage" style="rounded=1;whiteSpace=wrap;html=1;" vertex="1" parent="1">
          <mxGeometry x="930" y="105" width="170" height="100" as="geometry" />
        </mxCell>
        <mxCell id="Cwlrhj_tZDCb-IW97PB_-50" value="" style="edgeStyle=orthogonalEdgeStyle;rounded=0;orthogonalLoop=1;jettySize=auto;html=1;exitX=1;exitY=0.5;exitDx=0;exitDy=0;" edge="1" parent="1" source="Cwlrhj_tZDCb-IW97PB_-53" target="Cwlrhj_tZDCb-IW97PB_-49">
          <mxGeometry relative="1" as="geometry" />
        </mxCell>
        <mxCell id="Cwlrhj_tZDCb-IW97PB_-8" value="25 left over of incoming damage" style="rounded=1;whiteSpace=wrap;html=1;" vertex="1" parent="1">
          <mxGeometry x="1240" y="125" width="120" height="60" as="geometry" />
        </mxCell>
        <mxCell id="Cwlrhj_tZDCb-IW97PB_-9" value="&lt;div&gt;if block is used:&lt;/div&gt;&lt;div&gt;incoming damage(-100)+block amount(max block = incoming damage)&lt;br&gt;&lt;/div&gt;" style="rounded=1;whiteSpace=wrap;html=1;" vertex="1" parent="1">
          <mxGeometry x="650" y="10" width="140" height="70" as="geometry" />
        </mxCell>
        <mxCell id="Cwlrhj_tZDCb-IW97PB_-10" value="if heal is used, current hp(100 hp) + heal amount(max heal=max health)" style="rounded=1;whiteSpace=wrap;html=1;" vertex="1" parent="1">
          <mxGeometry x="650" y="260" width="140" height="70" as="geometry" />
        </mxCell>
        <mxCell id="Cwlrhj_tZDCb-IW97PB_-13" value="" style="endArrow=classic;html=1;rounded=0;exitX=1;exitY=0;exitDx=0;exitDy=0;" edge="1" parent="1" source="Cwlrhj_tZDCb-IW97PB_-2" target="Cwlrhj_tZDCb-IW97PB_-9">
          <mxGeometry relative="1" as="geometry">
            <mxPoint x="520" y="145" as="sourcePoint" />
            <mxPoint x="600" y="120" as="targetPoint" />
          </mxGeometry>
        </mxCell>
        <mxCell id="Cwlrhj_tZDCb-IW97PB_-14" value="next turn" style="edgeLabel;resizable=0;html=1;;align=center;verticalAlign=middle;" connectable="0" vertex="1" parent="Cwlrhj_tZDCb-IW97PB_-13">
          <mxGeometry relative="1" as="geometry" />
        </mxCell>
        <mxCell id="Cwlrhj_tZDCb-IW97PB_-15" value="" style="endArrow=classic;html=1;rounded=0;exitX=1;exitY=1;exitDx=0;exitDy=0;" edge="1" parent="1" source="Cwlrhj_tZDCb-IW97PB_-2" target="Cwlrhj_tZDCb-IW97PB_-10">
          <mxGeometry relative="1" as="geometry">
            <mxPoint x="520" y="175" as="sourcePoint" />
            <mxPoint x="600" y="205" as="targetPoint" />
          </mxGeometry>
        </mxCell>
        <mxCell id="Cwlrhj_tZDCb-IW97PB_-16" value="next turn" style="edgeLabel;resizable=0;html=1;;align=center;verticalAlign=middle;" connectable="0" vertex="1" parent="Cwlrhj_tZDCb-IW97PB_-15">
          <mxGeometry relative="1" as="geometry">
            <mxPoint x="5" y="3" as="offset" />
          </mxGeometry>
        </mxCell>
        <mxCell id="Cwlrhj_tZDCb-IW97PB_-20" value="" style="endArrow=classic;startArrow=classic;html=1;rounded=0;entryX=0.5;entryY=1;entryDx=0;entryDy=0;" edge="1" parent="1" source="Cwlrhj_tZDCb-IW97PB_-10" target="Cwlrhj_tZDCb-IW97PB_-9">
          <mxGeometry width="50" height="50" relative="1" as="geometry">
            <mxPoint x="669.5" y="190" as="sourcePoint" />
            <mxPoint x="669.5" y="140" as="targetPoint" />
          </mxGeometry>
        </mxCell>
        <mxCell id="Cwlrhj_tZDCb-IW97PB_-21" value="and/or" style="text;html=1;align=center;verticalAlign=middle;whiteSpace=wrap;rounded=0;" vertex="1" parent="1">
          <mxGeometry x="690" y="145" width="60" height="30" as="geometry" />
        </mxCell>
        <mxCell id="Cwlrhj_tZDCb-IW97PB_-32" value="my turn 1" style="text;html=1;align=center;verticalAlign=middle;whiteSpace=wrap;rounded=0;" vertex="1" parent="1">
          <mxGeometry x="230" y="90" width="60" height="30" as="geometry" />
        </mxCell>
        <mxCell id="Cwlrhj_tZDCb-IW97PB_-33" value="opponent turn 2" style="text;html=1;align=center;verticalAlign=middle;whiteSpace=wrap;rounded=0;" vertex="1" parent="1">
          <mxGeometry x="455" y="75" width="60" height="30" as="geometry" />
        </mxCell>
        <mxCell id="Cwlrhj_tZDCb-IW97PB_-36" value="" style="endArrow=classic;html=1;rounded=0;entryX=0;entryY=1;entryDx=0;entryDy=0;exitX=1;exitY=0;exitDx=0;exitDy=0;" edge="1" parent="1" source="Cwlrhj_tZDCb-IW97PB_-10" target="Cwlrhj_tZDCb-IW97PB_-7">
          <mxGeometry width="50" height="50" relative="1" as="geometry">
            <mxPoint x="770" y="270" as="sourcePoint" />
            <mxPoint x="820" y="220" as="targetPoint" />
          </mxGeometry>
        </mxCell>
        <mxCell id="Cwlrhj_tZDCb-IW97PB_-37" value="" style="endArrow=classic;html=1;rounded=0;exitX=1;exitY=1;exitDx=0;exitDy=0;entryX=0;entryY=0;entryDx=0;entryDy=0;" edge="1" parent="1" source="Cwlrhj_tZDCb-IW97PB_-9" target="Cwlrhj_tZDCb-IW97PB_-7">
          <mxGeometry width="50" height="50" relative="1" as="geometry">
            <mxPoint x="770" y="140" as="sourcePoint" />
            <mxPoint x="830" y="130" as="targetPoint" />
          </mxGeometry>
        </mxCell>
        <mxCell id="Cwlrhj_tZDCb-IW97PB_-44" value="Opponent turn 3" style="text;html=1;align=center;verticalAlign=middle;whiteSpace=wrap;rounded=0;" vertex="1" parent="1">
          <mxGeometry x="1275" y="50" width="60" height="40" as="geometry" />
        </mxCell>
        <mxCell id="Cwlrhj_tZDCb-IW97PB_-45" value="" style="endArrow=classic;html=1;rounded=0;exitX=1;exitY=0.5;exitDx=0;exitDy=0;" edge="1" parent="1" source="Cwlrhj_tZDCb-IW97PB_-1" target="Cwlrhj_tZDCb-IW97PB_-2">
          <mxGeometry width="50" height="50" relative="1" as="geometry">
            <mxPoint x="340" y="190" as="sourcePoint" />
            <mxPoint x="390" y="140" as="targetPoint" />
          </mxGeometry>
        </mxCell>
        <mxCell id="Cwlrhj_tZDCb-IW97PB_-117" value="" style="edgeStyle=orthogonalEdgeStyle;rounded=0;orthogonalLoop=1;jettySize=auto;html=1;" edge="1" parent="1" source="Cwlrhj_tZDCb-IW97PB_-49" target="Cwlrhj_tZDCb-IW97PB_-116">
          <mxGeometry relative="1" as="geometry" />
        </mxCell>
        <mxCell id="Cwlrhj_tZDCb-IW97PB_-49" value="end turn subtract 25 from health bar, subtract 25 from incoming damage" style="whiteSpace=wrap;html=1;rounded=1;" vertex="1" parent="1">
          <mxGeometry x="1500" y="125" width="120" height="60" as="geometry" />
        </mxCell>
        <mxCell id="Cwlrhj_tZDCb-IW97PB_-51" value="my turn 3" style="text;html=1;align=center;verticalAlign=middle;whiteSpace=wrap;rounded=0;" vertex="1" parent="1">
          <mxGeometry x="1530" y="60" width="60" height="30" as="geometry" />
        </mxCell>
        <mxCell id="Cwlrhj_tZDCb-IW97PB_-52" value="next turn" style="text;html=1;align=center;verticalAlign=middle;whiteSpace=wrap;rounded=0;" vertex="1" parent="1">
          <mxGeometry x="1140" y="130" width="60" height="30" as="geometry" />
        </mxCell>
        <mxCell id="Cwlrhj_tZDCb-IW97PB_-57" value="&lt;div&gt;&amp;nbsp;my turn 2&lt;/div&gt;&lt;div&gt;&amp;nbsp;var currrent hp&lt;/div&gt;&lt;div&gt;&lt;br&gt;&lt;/div&gt;" style="text;html=1;whiteSpace=wrap;overflow=hidden;rounded=0;align=center;" vertex="1" parent="1">
          <mxGeometry x="630" y="-70" width="180" height="70" as="geometry" />
        </mxCell>
        <mxCell id="Cwlrhj_tZDCb-IW97PB_-64" value="" style="edgeStyle=orthogonalEdgeStyle;rounded=0;orthogonalLoop=1;jettySize=auto;html=1;exitX=1;exitY=0.5;exitDx=0;exitDy=0;" edge="1" parent="1" source="Cwlrhj_tZDCb-IW97PB_-8" target="Cwlrhj_tZDCb-IW97PB_-53">
          <mxGeometry relative="1" as="geometry">
            <mxPoint x="1360" y="155" as="sourcePoint" />
            <mxPoint x="1500" y="155" as="targetPoint" />
          </mxGeometry>
        </mxCell>
        <mxCell id="Cwlrhj_tZDCb-IW97PB_-53" value="next turn" style="text;html=1;align=center;verticalAlign=middle;whiteSpace=wrap;rounded=0;" vertex="1" parent="1">
          <mxGeometry x="1400" y="140" width="60" height="30" as="geometry" />
        </mxCell>
        <mxCell id="Cwlrhj_tZDCb-IW97PB_-66" value="&lt;div&gt;var health&amp;nbsp;&amp;nbsp;&amp;nbsp;&amp;nbsp;&amp;nbsp;&amp;nbsp;&amp;nbsp;&amp;nbsp;&amp;nbsp;&amp;nbsp;&amp;nbsp;&amp;nbsp;&amp;nbsp;&amp;nbsp;&amp;nbsp;&amp;nbsp;&amp;nbsp;&amp;nbsp;&amp;nbsp;&amp;nbsp; var current hp&lt;/div&gt;&lt;div&gt;var damage&lt;/div&gt;&lt;div&gt;var incomingdamage&lt;/div&gt;&lt;div&gt;var block&lt;/div&gt;&lt;div&gt;var heal&lt;br&gt;&lt;/div&gt;" style="text;html=1;align=left;verticalAlign=top;whiteSpace=wrap;rounded=0;horizontal=1;" vertex="1" parent="1">
          <mxGeometry x="242.5" y="-250" width="320" height="160" as="geometry" />
        </mxCell>
        <mxCell id="Cwlrhj_tZDCb-IW97PB_-67" value="&lt;div&gt;effects when taking damage trigger here:&lt;br&gt;&lt;/div&gt;&lt;div&gt;expose, barrier, lesson of pain&lt;br&gt;&lt;/div&gt;" style="rounded=1;whiteSpace=wrap;html=1;" vertex="1" parent="1">
          <mxGeometry x="407.5" y="270" width="155" height="70" as="geometry" />
        </mxCell>
        <mxCell id="Cwlrhj_tZDCb-IW97PB_-69" value="end turn 2" style="text;html=1;align=center;verticalAlign=middle;whiteSpace=wrap;rounded=0;" vertex="1" parent="1">
          <mxGeometry x="985" y="60" width="60" height="30" as="geometry" />
        </mxCell>
        <mxCell id="Cwlrhj_tZDCb-IW97PB_-74" value="" style="edgeStyle=orthogonalEdgeStyle;rounded=0;orthogonalLoop=1;jettySize=auto;html=1;" edge="1" parent="1" source="Cwlrhj_tZDCb-IW97PB_-72" target="Cwlrhj_tZDCb-IW97PB_-73">
          <mxGeometry relative="1" as="geometry" />
        </mxCell>
        <mxCell id="Cwlrhj_tZDCb-IW97PB_-108" value="" style="edgeStyle=orthogonalEdgeStyle;rounded=0;orthogonalLoop=1;jettySize=auto;html=1;" edge="1" parent="1" source="Cwlrhj_tZDCb-IW97PB_-72" target="Cwlrhj_tZDCb-IW97PB_-107">
          <mxGeometry relative="1" as="geometry" />
        </mxCell>
        <mxCell id="Cwlrhj_tZDCb-IW97PB_-112" value="" style="edgeStyle=orthogonalEdgeStyle;rounded=0;orthogonalLoop=1;jettySize=auto;html=1;" edge="1" parent="1" source="Cwlrhj_tZDCb-IW97PB_-72" target="Cwlrhj_tZDCb-IW97PB_-111">
          <mxGeometry relative="1" as="geometry" />
        </mxCell>
        <mxCell id="Cwlrhj_tZDCb-IW97PB_-72" value="150" style="text;html=1;align=center;verticalAlign=middle;whiteSpace=wrap;rounded=0;" vertex="1" parent="1">
          <mxGeometry x="240" y="560" width="60" height="30" as="geometry" />
        </mxCell>
        <mxCell id="Cwlrhj_tZDCb-IW97PB_-76" value="" style="edgeStyle=orthogonalEdgeStyle;rounded=0;orthogonalLoop=1;jettySize=auto;html=1;" edge="1" parent="1" source="Cwlrhj_tZDCb-IW97PB_-73" target="Cwlrhj_tZDCb-IW97PB_-75">
          <mxGeometry relative="1" as="geometry" />
        </mxCell>
        <mxCell id="Cwlrhj_tZDCb-IW97PB_-93" value="" style="edgeStyle=orthogonalEdgeStyle;rounded=0;orthogonalLoop=1;jettySize=auto;html=1;" edge="1" parent="1" source="Cwlrhj_tZDCb-IW97PB_-73" target="Cwlrhj_tZDCb-IW97PB_-92">
          <mxGeometry relative="1" as="geometry" />
        </mxCell>
        <mxCell id="Cwlrhj_tZDCb-IW97PB_-73" value="150" style="text;html=1;align=center;verticalAlign=middle;whiteSpace=wrap;rounded=0;" vertex="1" parent="1">
          <mxGeometry x="455" y="560" width="60" height="30" as="geometry" />
        </mxCell>
        <mxCell id="Cwlrhj_tZDCb-IW97PB_-80" value="" style="edgeStyle=orthogonalEdgeStyle;rounded=0;orthogonalLoop=1;jettySize=auto;html=1;" edge="1" parent="1" source="Cwlrhj_tZDCb-IW97PB_-75" target="Cwlrhj_tZDCb-IW97PB_-79">
          <mxGeometry relative="1" as="geometry" />
        </mxCell>
        <mxCell id="Cwlrhj_tZDCb-IW97PB_-89" value="" style="edgeStyle=orthogonalEdgeStyle;rounded=0;orthogonalLoop=1;jettySize=auto;html=1;" edge="1" parent="1" source="Cwlrhj_tZDCb-IW97PB_-75" target="Cwlrhj_tZDCb-IW97PB_-88">
          <mxGeometry relative="1" as="geometry" />
        </mxCell>
        <mxCell id="Cwlrhj_tZDCb-IW97PB_-75" value="150" style="text;html=1;align=center;verticalAlign=middle;whiteSpace=wrap;rounded=0;" vertex="1" parent="1">
          <mxGeometry x="690" y="560" width="60" height="30" as="geometry" />
        </mxCell>
        <mxCell id="Cwlrhj_tZDCb-IW97PB_-85" value="" style="edgeStyle=orthogonalEdgeStyle;rounded=0;orthogonalLoop=1;jettySize=auto;html=1;" edge="1" parent="1" source="Cwlrhj_tZDCb-IW97PB_-79" target="Cwlrhj_tZDCb-IW97PB_-84">
          <mxGeometry relative="1" as="geometry" />
        </mxCell>
        <mxCell id="Cwlrhj_tZDCb-IW97PB_-95" value="" style="edgeStyle=orthogonalEdgeStyle;rounded=0;orthogonalLoop=1;jettySize=auto;html=1;" edge="1" parent="1" source="Cwlrhj_tZDCb-IW97PB_-79" target="Cwlrhj_tZDCb-IW97PB_-94">
          <mxGeometry relative="1" as="geometry" />
        </mxCell>
        <mxCell id="Cwlrhj_tZDCb-IW97PB_-79" value="75" style="text;html=1;align=center;verticalAlign=middle;whiteSpace=wrap;rounded=0;" vertex="1" parent="1">
          <mxGeometry x="980" y="560" width="60" height="30" as="geometry" />
        </mxCell>
        <mxCell id="Cwlrhj_tZDCb-IW97PB_-82" value="my turn 3:&lt;br&gt;current:75 hp&lt;br&gt;incoming: 125" style="text;html=1;align=center;verticalAlign=middle;whiteSpace=wrap;rounded=0;" vertex="1" parent="1">
          <mxGeometry x="1506.25" y="430" width="107.5" height="50" as="geometry" />
        </mxCell>
        <mxCell id="Cwlrhj_tZDCb-IW97PB_-87" value="" style="edgeStyle=orthogonalEdgeStyle;rounded=0;orthogonalLoop=1;jettySize=auto;html=1;" edge="1" parent="1" source="Cwlrhj_tZDCb-IW97PB_-84" target="Cwlrhj_tZDCb-IW97PB_-86">
          <mxGeometry relative="1" as="geometry" />
        </mxCell>
        <mxCell id="Cwlrhj_tZDCb-IW97PB_-99" value="" style="edgeStyle=orthogonalEdgeStyle;rounded=0;orthogonalLoop=1;jettySize=auto;html=1;" edge="1" parent="1" source="Cwlrhj_tZDCb-IW97PB_-84" target="Cwlrhj_tZDCb-IW97PB_-98">
          <mxGeometry relative="1" as="geometry" />
        </mxCell>
        <mxCell id="Cwlrhj_tZDCb-IW97PB_-84" value="75" style="text;html=1;align=center;verticalAlign=middle;whiteSpace=wrap;rounded=0;" vertex="1" parent="1">
          <mxGeometry x="1270" y="560" width="60" height="30" as="geometry" />
        </mxCell>
        <mxCell id="Cwlrhj_tZDCb-IW97PB_-97" value="" style="edgeStyle=orthogonalEdgeStyle;rounded=0;orthogonalLoop=1;jettySize=auto;html=1;" edge="1" parent="1" source="Cwlrhj_tZDCb-IW97PB_-86" target="Cwlrhj_tZDCb-IW97PB_-96">
          <mxGeometry relative="1" as="geometry" />
        </mxCell>
        <mxCell id="Cwlrhj_tZDCb-IW97PB_-100" style="edgeStyle=orthogonalEdgeStyle;rounded=0;orthogonalLoop=1;jettySize=auto;html=1;exitX=0.5;exitY=0;exitDx=0;exitDy=0;" edge="1" parent="1" source="Cwlrhj_tZDCb-IW97PB_-86" target="Cwlrhj_tZDCb-IW97PB_-82">
          <mxGeometry relative="1" as="geometry" />
        </mxCell>
        <mxCell id="Cwlrhj_tZDCb-IW97PB_-86" value="75" style="text;html=1;align=center;verticalAlign=middle;whiteSpace=wrap;rounded=0;" vertex="1" parent="1">
          <mxGeometry x="1530" y="560" width="60" height="30" as="geometry" />
        </mxCell>
        <mxCell id="Cwlrhj_tZDCb-IW97PB_-88" value="&lt;div&gt;my turn 2:&lt;br&gt;incoming damage: 200&lt;br&gt;&lt;/div&gt;" style="text;html=1;align=center;verticalAlign=middle;whiteSpace=wrap;rounded=0;" vertex="1" parent="1">
          <mxGeometry x="655" y="440" width="130" height="30" as="geometry" />
        </mxCell>
        <mxCell id="Cwlrhj_tZDCb-IW97PB_-92" value="opp turn 2:&lt;br&gt;-200 damage" style="text;html=1;align=center;verticalAlign=middle;whiteSpace=wrap;rounded=0;" vertex="1" parent="1">
          <mxGeometry x="447.5" y="440" width="75" height="30" as="geometry" />
        </mxCell>
        <mxCell id="Cwlrhj_tZDCb-IW97PB_-94" value="end turn 2:&lt;br&gt;lose -75 of incoming damage&lt;br&gt;incoming: 125" style="text;html=1;align=center;verticalAlign=middle;whiteSpace=wrap;rounded=0;" vertex="1" parent="1">
          <mxGeometry x="925" y="420" width="170" height="60" as="geometry" />
        </mxCell>
        <mxCell id="Cwlrhj_tZDCb-IW97PB_-102" value="" style="edgeStyle=orthogonalEdgeStyle;rounded=0;orthogonalLoop=1;jettySize=auto;html=1;" edge="1" parent="1" source="Cwlrhj_tZDCb-IW97PB_-96" target="Cwlrhj_tZDCb-IW97PB_-101">
          <mxGeometry relative="1" as="geometry" />
        </mxCell>
        <mxCell id="Cwlrhj_tZDCb-IW97PB_-104" value="" style="edgeStyle=orthogonalEdgeStyle;rounded=0;orthogonalLoop=1;jettySize=auto;html=1;" edge="1" parent="1" source="Cwlrhj_tZDCb-IW97PB_-96" target="Cwlrhj_tZDCb-IW97PB_-103">
          <mxGeometry relative="1" as="geometry" />
        </mxCell>
        <mxCell id="Cwlrhj_tZDCb-IW97PB_-96" value="0" style="text;html=1;align=center;verticalAlign=middle;whiteSpace=wrap;rounded=0;" vertex="1" parent="1">
          <mxGeometry x="1715" y="560" width="60" height="30" as="geometry" />
        </mxCell>
        <mxCell id="Cwlrhj_tZDCb-IW97PB_-98" value="opp turn 3:&lt;br&gt;0 additional damage" style="text;html=1;align=center;verticalAlign=middle;whiteSpace=wrap;rounded=0;" vertex="1" parent="1">
          <mxGeometry x="1240" y="440" width="120" height="30" as="geometry" />
        </mxCell>
        <mxCell id="Cwlrhj_tZDCb-IW97PB_-101" value="end turn 3:&lt;br&gt;lose -75 of incoming damage&lt;br&gt;incoming: 50" style="text;html=1;align=center;verticalAlign=middle;whiteSpace=wrap;rounded=0;" vertex="1" parent="1">
          <mxGeometry x="1660" y="420" width="170" height="70" as="geometry" />
        </mxCell>
        <mxCell id="Cwlrhj_tZDCb-IW97PB_-106" value="" style="edgeStyle=orthogonalEdgeStyle;rounded=0;orthogonalLoop=1;jettySize=auto;html=1;" edge="1" parent="1" source="Cwlrhj_tZDCb-IW97PB_-103" target="Cwlrhj_tZDCb-IW97PB_-105">
          <mxGeometry relative="1" as="geometry" />
        </mxCell>
        <mxCell id="Cwlrhj_tZDCb-IW97PB_-103" value="dead" style="text;html=1;align=center;verticalAlign=middle;whiteSpace=wrap;rounded=0;" vertex="1" parent="1">
          <mxGeometry x="1937.5" y="560" width="60" height="30" as="geometry" />
        </mxCell>
        <mxCell id="Cwlrhj_tZDCb-IW97PB_-105" value="opp turn 4:&lt;br&gt;0 additional damage" style="text;html=1;align=center;verticalAlign=middle;whiteSpace=wrap;rounded=0;" vertex="1" parent="1">
          <mxGeometry x="1855" y="440" width="225" height="30" as="geometry" />
        </mxCell>
        <mxCell id="Cwlrhj_tZDCb-IW97PB_-107" value="my turn 1" style="text;html=1;align=center;verticalAlign=middle;whiteSpace=wrap;rounded=0;" vertex="1" parent="1">
          <mxGeometry x="240" y="440" width="60" height="30" as="geometry" />
        </mxCell>
        <mxCell id="Cwlrhj_tZDCb-IW97PB_-111" value="opp first turn skipped" style="text;html=1;align=center;verticalAlign=middle;whiteSpace=wrap;rounded=0;" vertex="1" parent="1">
          <mxGeometry x="50" y="555" width="100" height="40" as="geometry" />
        </mxCell>
        <mxCell id="Cwlrhj_tZDCb-IW97PB_-115" style="edgeStyle=orthogonalEdgeStyle;rounded=0;orthogonalLoop=1;jettySize=auto;html=1;exitX=1;exitY=0.5;exitDx=0;exitDy=0;entryX=0;entryY=0.5;entryDx=0;entryDy=0;" edge="1" parent="1" source="Cwlrhj_tZDCb-IW97PB_-114" target="Cwlrhj_tZDCb-IW97PB_-1">
          <mxGeometry relative="1" as="geometry" />
        </mxCell>
        <mxCell id="Cwlrhj_tZDCb-IW97PB_-114" value="opp first turn skipped" style="text;html=1;align=center;verticalAlign=middle;whiteSpace=wrap;rounded=0;" vertex="1" parent="1">
          <mxGeometry x="20" y="140" width="100" height="40" as="geometry" />
        </mxCell>
        <mxCell id="Cwlrhj_tZDCb-IW97PB_-116" value="" style="whiteSpace=wrap;html=1;rounded=1;" vertex="1" parent="1">
          <mxGeometry x="1700" y="125" width="120" height="60" as="geometry" />
        </mxCell>
        <mxCell id="Cwlrhj_tZDCb-IW97PB_-119" value="end turn 3" style="text;html=1;align=center;verticalAlign=middle;whiteSpace=wrap;rounded=0;" vertex="1" parent="1">
          <mxGeometry x="1730" y="60" width="60" height="30" as="geometry" />
        </mxCell>
        <mxCell id="Cwlrhj_tZDCb-IW97PB_-123" value="" style="edgeStyle=orthogonalEdgeStyle;rounded=0;orthogonalLoop=1;jettySize=auto;html=1;" edge="1" parent="1" source="Cwlrhj_tZDCb-IW97PB_-126" target="Cwlrhj_tZDCb-IW97PB_-129">
          <mxGeometry relative="1" as="geometry" />
        </mxCell>
        <mxCell id="Cwlrhj_tZDCb-IW97PB_-124" value="" style="edgeStyle=orthogonalEdgeStyle;rounded=0;orthogonalLoop=1;jettySize=auto;html=1;" edge="1" parent="1" source="Cwlrhj_tZDCb-IW97PB_-126" target="Cwlrhj_tZDCb-IW97PB_-151">
          <mxGeometry relative="1" as="geometry" />
        </mxCell>
        <mxCell id="Cwlrhj_tZDCb-IW97PB_-125" value="" style="edgeStyle=orthogonalEdgeStyle;rounded=0;orthogonalLoop=1;jettySize=auto;html=1;" edge="1" parent="1" source="Cwlrhj_tZDCb-IW97PB_-126">
          <mxGeometry relative="1" as="geometry">
            <mxPoint x="150" y="785" as="targetPoint" />
          </mxGeometry>
        </mxCell>
        <mxCell id="Cwlrhj_tZDCb-IW97PB_-126" value="1" style="text;html=1;align=center;verticalAlign=middle;whiteSpace=wrap;rounded=0;" vertex="1" parent="1">
          <mxGeometry x="240" y="770" width="60" height="30" as="geometry" />
        </mxCell>
        <mxCell id="Cwlrhj_tZDCb-IW97PB_-127" value="" style="edgeStyle=orthogonalEdgeStyle;rounded=0;orthogonalLoop=1;jettySize=auto;html=1;" edge="1" parent="1" source="Cwlrhj_tZDCb-IW97PB_-129" target="Cwlrhj_tZDCb-IW97PB_-132">
          <mxGeometry relative="1" as="geometry" />
        </mxCell>
        <mxCell id="Cwlrhj_tZDCb-IW97PB_-128" value="" style="edgeStyle=orthogonalEdgeStyle;rounded=0;orthogonalLoop=1;jettySize=auto;html=1;" edge="1" parent="1" source="Cwlrhj_tZDCb-IW97PB_-129" target="Cwlrhj_tZDCb-IW97PB_-144">
          <mxGeometry relative="1" as="geometry" />
        </mxCell>
        <mxCell id="Cwlrhj_tZDCb-IW97PB_-129" value="1" style="text;html=1;align=center;verticalAlign=middle;whiteSpace=wrap;rounded=0;" vertex="1" parent="1">
          <mxGeometry x="455" y="770" width="60" height="30" as="geometry" />
        </mxCell>
        <mxCell id="Cwlrhj_tZDCb-IW97PB_-130" value="" style="edgeStyle=orthogonalEdgeStyle;rounded=0;orthogonalLoop=1;jettySize=auto;html=1;" edge="1" parent="1" source="Cwlrhj_tZDCb-IW97PB_-132" target="Cwlrhj_tZDCb-IW97PB_-135">
          <mxGeometry relative="1" as="geometry" />
        </mxCell>
        <mxCell id="Cwlrhj_tZDCb-IW97PB_-131" value="" style="edgeStyle=orthogonalEdgeStyle;rounded=0;orthogonalLoop=1;jettySize=auto;html=1;" edge="1" parent="1" source="Cwlrhj_tZDCb-IW97PB_-132" target="Cwlrhj_tZDCb-IW97PB_-143">
          <mxGeometry relative="1" as="geometry" />
        </mxCell>
        <mxCell id="Cwlrhj_tZDCb-IW97PB_-132" value="1" style="text;html=1;align=center;verticalAlign=middle;whiteSpace=wrap;rounded=0;" vertex="1" parent="1">
          <mxGeometry x="690" y="770" width="60" height="30" as="geometry" />
        </mxCell>
        <mxCell id="Cwlrhj_tZDCb-IW97PB_-133" value="" style="edgeStyle=orthogonalEdgeStyle;rounded=0;orthogonalLoop=1;jettySize=auto;html=1;" edge="1" parent="1" source="Cwlrhj_tZDCb-IW97PB_-135" target="Cwlrhj_tZDCb-IW97PB_-139">
          <mxGeometry relative="1" as="geometry" />
        </mxCell>
        <mxCell id="Cwlrhj_tZDCb-IW97PB_-134" value="" style="edgeStyle=orthogonalEdgeStyle;rounded=0;orthogonalLoop=1;jettySize=auto;html=1;" edge="1" parent="1" source="Cwlrhj_tZDCb-IW97PB_-135">
          <mxGeometry relative="1" as="geometry">
            <mxPoint x="1010" y="690" as="targetPoint" />
          </mxGeometry>
        </mxCell>
        <mxCell id="Cwlrhj_tZDCb-IW97PB_-184" value="" style="edgeStyle=orthogonalEdgeStyle;rounded=0;orthogonalLoop=1;jettySize=auto;html=1;" edge="1" parent="1" source="Cwlrhj_tZDCb-IW97PB_-135" target="Cwlrhj_tZDCb-IW97PB_-183">
          <mxGeometry relative="1" as="geometry" />
        </mxCell>
        <mxCell id="Cwlrhj_tZDCb-IW97PB_-135" value="-74" style="text;html=1;align=center;verticalAlign=middle;whiteSpace=wrap;rounded=0;" vertex="1" parent="1">
          <mxGeometry x="980" y="770" width="60" height="30" as="geometry" />
        </mxCell>
        <mxCell id="Cwlrhj_tZDCb-IW97PB_-136" value="my turn 3:&lt;br&gt;current:1 hp&lt;br&gt;incoming: 125" style="text;html=1;align=center;verticalAlign=middle;whiteSpace=wrap;rounded=0;" vertex="1" parent="1">
          <mxGeometry x="1506.25" y="640" width="107.5" height="50" as="geometry" />
        </mxCell>
        <mxCell id="Cwlrhj_tZDCb-IW97PB_-137" value="" style="edgeStyle=orthogonalEdgeStyle;rounded=0;orthogonalLoop=1;jettySize=auto;html=1;" edge="1" parent="1" source="Cwlrhj_tZDCb-IW97PB_-139" target="Cwlrhj_tZDCb-IW97PB_-142">
          <mxGeometry relative="1" as="geometry" />
        </mxCell>
        <mxCell id="Cwlrhj_tZDCb-IW97PB_-138" value="" style="edgeStyle=orthogonalEdgeStyle;rounded=0;orthogonalLoop=1;jettySize=auto;html=1;" edge="1" parent="1" source="Cwlrhj_tZDCb-IW97PB_-139" target="Cwlrhj_tZDCb-IW97PB_-148">
          <mxGeometry relative="1" as="geometry" />
        </mxCell>
        <mxCell id="Cwlrhj_tZDCb-IW97PB_-139" value="1" style="text;html=1;align=center;verticalAlign=middle;whiteSpace=wrap;rounded=0;" vertex="1" parent="1">
          <mxGeometry x="1270" y="770" width="60" height="30" as="geometry" />
        </mxCell>
        <mxCell id="Cwlrhj_tZDCb-IW97PB_-140" value="" style="edgeStyle=orthogonalEdgeStyle;rounded=0;orthogonalLoop=1;jettySize=auto;html=1;" edge="1" parent="1" source="Cwlrhj_tZDCb-IW97PB_-142" target="Cwlrhj_tZDCb-IW97PB_-147">
          <mxGeometry relative="1" as="geometry" />
        </mxCell>
        <mxCell id="Cwlrhj_tZDCb-IW97PB_-141" style="edgeStyle=orthogonalEdgeStyle;rounded=0;orthogonalLoop=1;jettySize=auto;html=1;exitX=0.5;exitY=0;exitDx=0;exitDy=0;" edge="1" parent="1" source="Cwlrhj_tZDCb-IW97PB_-142" target="Cwlrhj_tZDCb-IW97PB_-136">
          <mxGeometry relative="1" as="geometry" />
        </mxCell>
        <mxCell id="Cwlrhj_tZDCb-IW97PB_-187" style="edgeStyle=orthogonalEdgeStyle;rounded=0;orthogonalLoop=1;jettySize=auto;html=1;exitX=0.5;exitY=1;exitDx=0;exitDy=0;entryX=0.5;entryY=0;entryDx=0;entryDy=0;" edge="1" parent="1" source="Cwlrhj_tZDCb-IW97PB_-142" target="Cwlrhj_tZDCb-IW97PB_-186">
          <mxGeometry relative="1" as="geometry" />
        </mxCell>
        <mxCell id="Cwlrhj_tZDCb-IW97PB_-142" value="1" style="text;html=1;align=center;verticalAlign=middle;whiteSpace=wrap;rounded=0;" vertex="1" parent="1">
          <mxGeometry x="1530" y="770" width="60" height="30" as="geometry" />
        </mxCell>
        <mxCell id="Cwlrhj_tZDCb-IW97PB_-143" value="&lt;div&gt;my turn 2:&lt;br&gt;incoming damage: 200&lt;br&gt;&lt;/div&gt;" style="text;html=1;align=center;verticalAlign=middle;whiteSpace=wrap;rounded=0;" vertex="1" parent="1">
          <mxGeometry x="655" y="650" width="130" height="30" as="geometry" />
        </mxCell>
        <mxCell id="Cwlrhj_tZDCb-IW97PB_-144" value="opp turn 2:&lt;br&gt;-200 damage" style="text;html=1;align=center;verticalAlign=middle;whiteSpace=wrap;rounded=0;" vertex="1" parent="1">
          <mxGeometry x="447.5" y="650" width="75" height="30" as="geometry" />
        </mxCell>
        <mxCell id="Cwlrhj_tZDCb-IW97PB_-145" value="" style="edgeStyle=orthogonalEdgeStyle;rounded=0;orthogonalLoop=1;jettySize=auto;html=1;" edge="1" parent="1" source="Cwlrhj_tZDCb-IW97PB_-147">
          <mxGeometry relative="1" as="geometry">
            <mxPoint x="1745" y="700" as="targetPoint" />
          </mxGeometry>
        </mxCell>
        <mxCell id="Cwlrhj_tZDCb-IW97PB_-146" value="" style="edgeStyle=orthogonalEdgeStyle;rounded=0;orthogonalLoop=1;jettySize=auto;html=1;" edge="1" parent="1" source="Cwlrhj_tZDCb-IW97PB_-147" target="Cwlrhj_tZDCb-IW97PB_-150">
          <mxGeometry relative="1" as="geometry" />
        </mxCell>
        <mxCell id="Cwlrhj_tZDCb-IW97PB_-147" value="1" style="text;html=1;align=center;verticalAlign=middle;whiteSpace=wrap;rounded=0;" vertex="1" parent="1">
          <mxGeometry x="1715" y="770" width="60" height="30" as="geometry" />
        </mxCell>
        <mxCell id="Cwlrhj_tZDCb-IW97PB_-148" value="opp turn 3:&lt;br&gt;0 additional damage" style="text;html=1;align=center;verticalAlign=middle;whiteSpace=wrap;rounded=0;" vertex="1" parent="1">
          <mxGeometry x="1240" y="650" width="120" height="30" as="geometry" />
        </mxCell>
        <mxCell id="Cwlrhj_tZDCb-IW97PB_-191" style="edgeStyle=orthogonalEdgeStyle;rounded=0;orthogonalLoop=1;jettySize=auto;html=1;exitX=0.5;exitY=0;exitDx=0;exitDy=0;entryX=0.5;entryY=1;entryDx=0;entryDy=0;" edge="1" parent="1" source="Cwlrhj_tZDCb-IW97PB_-150" target="Cwlrhj_tZDCb-IW97PB_-190">
          <mxGeometry relative="1" as="geometry" />
        </mxCell>
        <mxCell id="Cwlrhj_tZDCb-IW97PB_-194" value="" style="edgeStyle=orthogonalEdgeStyle;rounded=0;orthogonalLoop=1;jettySize=auto;html=1;" edge="1" parent="1" source="Cwlrhj_tZDCb-IW97PB_-150" target="Cwlrhj_tZDCb-IW97PB_-193">
          <mxGeometry relative="1" as="geometry" />
        </mxCell>
        <mxCell id="Cwlrhj_tZDCb-IW97PB_-196" style="edgeStyle=orthogonalEdgeStyle;rounded=0;orthogonalLoop=1;jettySize=auto;html=1;exitX=0.5;exitY=1;exitDx=0;exitDy=0;" edge="1" parent="1" source="Cwlrhj_tZDCb-IW97PB_-150" target="Cwlrhj_tZDCb-IW97PB_-192">
          <mxGeometry relative="1" as="geometry" />
        </mxCell>
        <mxCell id="Cwlrhj_tZDCb-IW97PB_-150" value="1" style="text;html=1;align=center;verticalAlign=middle;whiteSpace=wrap;rounded=0;" vertex="1" parent="1">
          <mxGeometry x="1937.5" y="770" width="60" height="30" as="geometry" />
        </mxCell>
        <mxCell id="Cwlrhj_tZDCb-IW97PB_-151" value="my turn 1" style="text;html=1;align=center;verticalAlign=middle;whiteSpace=wrap;rounded=0;" vertex="1" parent="1">
          <mxGeometry x="240" y="650" width="60" height="30" as="geometry" />
        </mxCell>
        <mxCell id="Cwlrhj_tZDCb-IW97PB_-181" value="opp first turn skipped" style="text;html=1;align=center;verticalAlign=middle;whiteSpace=wrap;rounded=0;" vertex="1" parent="1">
          <mxGeometry x="40" y="760" width="100" height="40" as="geometry" />
        </mxCell>
        <mxCell id="Cwlrhj_tZDCb-IW97PB_-182" value="end turn 2:&lt;br&gt;lose -75 of incoming damage&lt;br&gt;incoming: 125" style="text;html=1;align=center;verticalAlign=middle;whiteSpace=wrap;rounded=0;" vertex="1" parent="1">
          <mxGeometry x="920" y="620" width="170" height="60" as="geometry" />
        </mxCell>
        <mxCell id="Cwlrhj_tZDCb-IW97PB_-185" style="edgeStyle=orthogonalEdgeStyle;rounded=0;orthogonalLoop=1;jettySize=auto;html=1;exitX=1;exitY=0.5;exitDx=0;exitDy=0;entryX=0.5;entryY=1;entryDx=0;entryDy=0;" edge="1" parent="1" source="Cwlrhj_tZDCb-IW97PB_-183" target="Cwlrhj_tZDCb-IW97PB_-139">
          <mxGeometry relative="1" as="geometry" />
        </mxCell>
        <mxCell id="Cwlrhj_tZDCb-IW97PB_-183" value="need to block 200 or heal for 75" style="text;html=1;align=center;verticalAlign=middle;whiteSpace=wrap;rounded=0;" vertex="1" parent="1">
          <mxGeometry x="940" y="900" width="140" height="70" as="geometry" />
        </mxCell>
        <mxCell id="Cwlrhj_tZDCb-IW97PB_-188" style="edgeStyle=orthogonalEdgeStyle;rounded=0;orthogonalLoop=1;jettySize=auto;html=1;exitX=1;exitY=0.5;exitDx=0;exitDy=0;entryX=0.5;entryY=1;entryDx=0;entryDy=0;" edge="1" parent="1" source="Cwlrhj_tZDCb-IW97PB_-186" target="Cwlrhj_tZDCb-IW97PB_-147">
          <mxGeometry relative="1" as="geometry" />
        </mxCell>
        <mxCell id="Cwlrhj_tZDCb-IW97PB_-186" value="if healed need to block 125 or heal for 75" style="text;html=1;align=center;verticalAlign=middle;whiteSpace=wrap;rounded=0;" vertex="1" parent="1">
          <mxGeometry x="1490" y="900" width="140" height="70" as="geometry" />
        </mxCell>
        <mxCell id="Cwlrhj_tZDCb-IW97PB_-189" value="opp turn 4:&lt;br&gt;0 additional damage" style="text;html=1;align=center;verticalAlign=middle;whiteSpace=wrap;rounded=0;" vertex="1" parent="1">
          <mxGeometry x="1685" y="650" width="120" height="30" as="geometry" />
        </mxCell>
        <mxCell id="Cwlrhj_tZDCb-IW97PB_-190" value="my turn 4:&lt;br&gt;current:1 hp&lt;br&gt;incoming: 50" style="text;html=1;align=center;verticalAlign=middle;whiteSpace=wrap;rounded=0;" vertex="1" parent="1">
          <mxGeometry x="1913.75" y="640" width="107.5" height="50" as="geometry" />
        </mxCell>
        <mxCell id="Cwlrhj_tZDCb-IW97PB_-195" style="edgeStyle=orthogonalEdgeStyle;rounded=0;orthogonalLoop=1;jettySize=auto;html=1;exitX=1;exitY=0.5;exitDx=0;exitDy=0;" edge="1" parent="1" source="Cwlrhj_tZDCb-IW97PB_-192">
          <mxGeometry relative="1" as="geometry">
            <mxPoint x="2109.9999999999995" y="810" as="targetPoint" />
          </mxGeometry>
        </mxCell>
        <mxCell id="Cwlrhj_tZDCb-IW97PB_-192" value="if healed need to block 50 or heal for 50" style="text;html=1;align=center;verticalAlign=middle;whiteSpace=wrap;rounded=0;" vertex="1" parent="1">
          <mxGeometry x="1897.5" y="880" width="140" height="70" as="geometry" />
        </mxCell>
        <mxCell id="Cwlrhj_tZDCb-IW97PB_-193" value="1" style="text;html=1;align=center;verticalAlign=middle;whiteSpace=wrap;rounded=0;" vertex="1" parent="1">
          <mxGeometry x="2077.5" y="770" width="60" height="30" as="geometry" />
        </mxCell>
        <mxCell id="Cwlrhj_tZDCb-IW97PB_-198" value="" style="endArrow=classic;html=1;rounded=0;" edge="1" parent="1">
          <mxGeometry width="50" height="50" relative="1" as="geometry">
            <mxPoint x="300" y="-240" as="sourcePoint" />
            <mxPoint x="360" y="-240" as="targetPoint" />
          </mxGeometry>
        </mxCell>
      </root>
    </mxGraphModel>
  </diagram>
</mxfile>
